# xmcd
#
# Track frame offsets:
#	150
#	16456
#	33697
#	45304
#	60263
#	75816
#	94755
#	109932
#	121469
#	137656
#
# Disc length: 2095 seconds
# Revision: 2
# Processed by: cddbd v1.5.2PL0 Copyright (c) Steve Scherf et al.
# Submitted via: dBpowerAMP V12.0
#
DISCID=74082d0a
DTITLE=Tanya Tucker - While I'm Livin'
DYEAR=2019
DGENRE=Country
TTITLE0=Mustang Ridge
TTITLE1=The Wheels of Laredo
TTITLE2=I Don't Owe You Anything
TTITLE3=The Day My Heart Goes Still
TTITLE4=High Ridin' Heroes
TTITLE5=The House That Built Me
TTITLE6=Hard Luck
TTITLE7=Rich
TTITLE8=Seminole Wind Calling
TTITLE9=Bring My Flowers Now
EXTD=
EXTT0=
EXTT1=
EXTT2=
EXTT3=
EXTT4=
EXTT5=
EXTT6=
EXTT7=
EXTT8=
EXTT9=
PLAYORDER=
